<mxfile host="app.diagrams.net" modified="2023-12-25T10:28:08.038Z" agent="Mozilla/5.0 (X11; Linux x86_64; rv:121.0) Gecko/20100101 Firefox/121.0" version="22.1.11" etag="waNmp4_R7h7LuZ-vMmjm" type="github">
  <diagram name="Page-1" id="LQrr5xl0W30RTKASaVzJ">
    <mxGraphModel>
      <root>
        <mxCell id="0" />
        <mxCell id="1" parent="0" />
      </root>
    </mxGraphModel>
  </diagram>
</mxfile>
